<svg width="20" height="20" viewBox="0 0 256 256" xmlns="http://www.w3.org/2000/svg">
    <path d="M218.123 218.127H180.192V158.724c0-14.165-.252-32.4-19.728-32.4-19.756 0-22.779 15.434-22.779 31.369v59.798H99.754V95.967h36.414v16.694h.51c7.426-12.695 21.232-20.278 36.93-19.732 38.445.002 45.534 25.29 45.534 58.188v60.013zM56.955 79.269C44.798 79.271 34.941 69.417 34.939 57.26 34.937 45.103 44.79 35.246 56.947 35.244c12.157-.002 22.013 10.853 22.015 22.011.002 5.838-2.318 11.437-6.446 15.566-4.128 4.129-9.727 6.449-15.564 6.449zm18.012 138.858H37.95V95.967h37.971v122.16zM237.033.018H18.89C8.58-.08.124 8.161-.001 18.471v219.048c.121 10.315 8.575 19.581 18.889 19.473h218.144c10.316.108 19.803-8.09 19.951-18.423V18.455c-.15-10.316-9.436-18.592-19.767-18.436z" fill="#505F79"/>
</svg>
